<svg role="img" viewBox="0 0 24 24" xmlns="http://www.w3.org/2000/svg">
  <title>LinkedIn</title>
  <path d="M20.447 20.452h-3.554v-5.569c0-1.328-.027-3.039-1.852-3.039-1.853 
  0-2.136 1.445-2.136 2.939v5.669H9.351V9h3.414v1.561h.049c.477-.9 
  1.637-1.85 3.37-1.85 3.601 0 4.267 2.368 4.267 5.455v6.286zM5.337 
  7.433c-1.144 0-2.067-.926-2.067-2.065 0-1.144.923-2.066 
  2.067-2.066 1.14 0 2.064.922 
  2.064 2.066 0 1.139-.924 2.065-2.064 
  2.065zM6.765 20.452H3.91V9h2.855v11.452zM22.225 
  0H1.771C.792 0 0 .774 0 1.729v20.542C0 23.227.792 
  24 1.771 24h20.451C23.2 24 24 23.227 
  24 22.271V1.729C24 .774 23.2 0 22.225 0z"/>
</svg>
